<svg width="23" height="23" viewBox="0 0 23 23" fill="none" xmlns="http://www.w3.org/2000/svg">
<path d="M19.3259 1C19.3259 0.585786 18.9901 0.25 18.5759 0.25C18.1617 0.25 17.8259 0.585786 17.8259 1V3.25H15.5759C15.1617 3.25 14.8259 3.58579 14.8259 4C14.8259 4.41421 15.1617 4.75 15.5759 4.75H17.8259V7C17.8259 7.41421 18.1617 7.75 18.5759 7.75C18.9901 7.75 19.3259 7.41421 19.3259 7V4.75H21.5759C21.9901 4.75 22.3259 4.41421 22.3259 4C22.3259 3.58579 21.9901 3.25 21.5759 3.25H19.3259V1Z" fill="#FCFCFE"/>
<path d="M3.07593 3.25C1.55714 3.25 0.325928 4.48122 0.325928 6V19.5C0.325928 21.0188 1.55714 22.25 3.07593 22.25H16.5759C18.0947 22.25 19.3259 21.0188 19.3259 19.5V11C19.3259 10.5858 18.9901 10.25 18.5759 10.25C18.1617 10.25 17.8259 10.5858 17.8259 11V19.5C17.8259 20.1904 17.2663 20.75 16.5759 20.75H3.07593C2.38557 20.75 1.82593 20.1904 1.82593 19.5V6C1.82593 5.30964 2.38557 4.75 3.07593 4.75H11.5759C11.9901 4.75 12.3259 4.41421 12.3259 4C12.3259 3.58579 11.9901 3.25 11.5759 3.25H3.07593Z" fill="#FCFCFE"/>
<path d="M5.07593 8C4.66171 8 4.32593 8.33579 4.32593 8.75C4.32593 9.16421 4.66171 9.5 5.07593 9.5H14.5759C14.9901 9.5 15.3259 9.16421 15.3259 8.75C15.3259 8.33579 14.9901 8 14.5759 8H5.07593Z" fill="#FCFCFE"/>
<path d="M4.32593 12.75C4.32593 12.3358 4.66171 12 5.07593 12H14.5759C14.9901 12 15.3259 12.3358 15.3259 12.75C15.3259 13.1642 14.9901 13.5 14.5759 13.5H5.07593C4.66171 13.5 4.32593 13.1642 4.32593 12.75Z" fill="#FCFCFE"/>
<path d="M10.0759 15.75L5.07592 15.75C4.66171 15.75 4.32592 16.0858 4.32593 16.5C4.32593 16.9143 4.66172 17.25 5.07594 17.25L10.0759 17.25C10.4901 17.25 10.8259 16.9142 10.8259 16.5C10.8259 16.0858 10.4901 15.75 10.0759 15.75Z" fill="#FCFCFE"/>
</svg>
